grf
version=1
nRows=59
nColumns=19
inDegrees=yes
endheader
time	ground_force_1_vx	ground_force_1_vy	ground_force_1_vz	ground_force_1_px	ground_force_1_py	ground_force_1_pz	ground_moment_1_mx	ground_moment_1_my	ground_moment_1_mz	ground_force_2_vx	ground_force_2_vy	ground_force_2_vz	ground_force_2_px	ground_force_2_py	ground_force_2_pz	ground_moment_2_mx	ground_moment_2_my	ground_moment_2_mz
13.475000	-3.239596	352.064415	-33.710267	0.144264	0.000000	-1.033075	-0.000000	5.671420	0.000000	-3.999593	339.675952	35.914977	0.155399	0.000000	-1.445101	-0.000000	-3.758098	0.000000
13.476000	-3.256711	352.024941	-33.701198	0.142130	0.000000	-1.035304	-0.000000	5.665965	0.000000	-3.985743	339.801035	35.930988	0.153497	0.000000	-1.448613	0.000000	-3.762441	0.000000
13.477000	-3.275447	351.995376	-33.692565	0.142644	0.000000	-1.033033	-0.000000	5.660720	0.000000	-3.972290	339.915593	35.946296	0.156412	0.000000	-1.443191	0.000000	-3.766858	0.000000
13.478000	-3.295363	351.977244	-33.683947	0.142568	0.000000	-1.036386	-0.000000	5.655662	0.000000	-3.959359	340.018214	35.961315	0.158600	0.000000	-1.446740	0.000000	-3.771364	0.000000
13.479000	-3.316035	351.972252	-33.675019	0.142653	0.000000	-1.032920	-0.000000	5.650782	0.000000	-3.947179	340.107427	35.976559	0.157121	0.000000	-1.443696	0.000000	-3.775974	0.000000
13.480000	-3.337051	351.981879	-33.665543	0.143521	0.000000	-1.041844	-0.000000	5.646095	0.000000	-3.936049	340.181381	35.992509	0.155465	0.000000	-1.441610	0.000000	-3.780681	0.000000
13.481000	-3.358035	352.007058	-33.655430	0.143711	0.000000	-1.037695	-0.000000	5.641643	0.000000	-3.926290	340.237958	36.009554	0.153944	0.000000	-1.451008	0.000000	-3.785471	0.000000
13.482000	-3.378635	352.048034	-33.644818	0.142899	0.000000	-1.043801	-0.000000	5.637508	0.000000	-3.918157	340.275236	36.027931	0.154148	0.000000	-1.450823	0.000000	-3.790341	0.000000
13.483000	-3.398544	352.103991	-33.634018	0.142765	0.000000	-1.034345	-0.000000	5.633795	0.000000	-3.911779	340.292409	36.047697	0.156441	0.000000	-1.445243	0.000000	-3.795293	0.000000
13.484000	-3.417584	352.172776	-33.623366	0.143495	0.000000	-1.035879	-0.000000	5.630569	0.000000	-3.907189	340.290381	36.068832	0.156231	0.000000	-1.445300	0.000000	-3.800329	0.000000
13.485000	-3.435733	352.251296	-33.613206	0.142653	0.000000	-1.033125	-0.000000	5.627841	0.000000	-3.904409	340.271290	36.091320	0.156851	0.000000	-1.443620	0.000000	-3.805451	0.000000
13.486000	-3.453015	352.336331	-33.603958	0.145448	0.000000	-1.034559	-0.000000	5.625590	0.000000	-3.903491	340.237529	36.115138	0.156063	0.000000	-1.444113	0.000000	-3.810654	0.000000
13.487000	-3.469386	352.425143	-33.596103	0.144005	0.000000	-1.032891	0.000000	5.623793	0.000000	-3.904512	340.191105	36.140231	0.155427	0.000000	-1.442162	0.000000	-3.815933	0.000000
13.488000	-3.484743	352.515704	-33.590076	0.143736	0.000000	-1.035313	0.000000	5.622415	0.000000	-3.907569	340.133760	36.166476	0.158240	0.000000	-1.449877	0.000000	-3.821286	0.000000
13.489000	-3.499023	352.606490	-33.586162	0.143714	0.000000	-1.034962	0.000000	5.621388	0.000000	-3.912733	340.067530	36.193625	0.156784	0.000000	-1.441340	0.000000	-3.826720	0.000000
13.490000	-3.512263	352.696044	-33.584517	0.144227	0.000000	-1.034791	0.000000	5.620614	0.000000	-3.919979	339.994741	36.221313	0.157136	0.000000	-1.440881	0.000000	-3.832244	0.000000
13.491000	-3.524567	352.782682	-33.585233	0.143335	0.000000	-1.034574	0.000000	5.619985	0.000000	-3.929120	339.917231	36.249137	0.158017	0.000000	-1.445434	0.000000	-3.837871	0.000000
13.492000	-3.536067	352.864633	-33.588343	0.141929	0.000000	-1.025101	0.000000	5.619393	0.000000	-3.939800	339.835795	36.276730	0.156512	0.000000	-1.441740	0.000000	-3.843611	0.000000
13.493000	-3.546895	352.940476	-33.593802	0.144908	0.000000	-1.034731	0.000000	5.618723	0.000000	-3.951571	339.750458	36.303775	0.165378	0.000000	-1.451849	0.000000	-3.849470	0.000000
13.494000	-3.557187	353.008908	-33.601477	0.139368	0.000000	-1.032800	0.000000	5.617857	0.000000	-3.963987	339.661631	36.330004	0.157094	0.000000	-1.444469	0.000000	-3.855437	0.000000
13.495000	-3.567121	353.067829	-33.611141	0.143739	0.000000	-1.035976	0.000000	5.616682	0.000000	-3.976615	339.571205	36.355203	0.156765	0.000000	-1.444786	-0.000000	-3.861488	0.000000
13.496000	-3.576915	353.114225	-33.622504	0.143559	0.000000	-1.031237	0.000000	5.615112	0.000000	-3.989034	339.482098	36.379246	0.158079	0.000000	-1.446532	-0.000000	-3.867606	0.000000
13.497000	-3.586764	353.145083	-33.635246	0.145352	0.000000	-1.033726	0.000000	5.613085	0.000000	-4.000840	339.396965	36.402089	0.154064	0.000000	-1.439022	-0.000000	-3.873785	0.000000
13.498000	-3.596784	353.158245	-33.649012	0.141470	0.000000	-1.036506	0.000000	5.610560	0.000000	-4.011675	339.317528	36.423717	0.150599	0.000000	-1.438661	-0.000000	-3.880024	0.000000
13.499000	-3.606996	353.152881	-33.663399	0.144315	0.000000	-1.030827	0.000000	5.607502	0.000000	-4.021227	339.244283	36.444119	0.155786	0.000000	-1.445960	-0.000000	-3.886332	0.000000
13.500000	-3.617367	353.129487	-33.678033	0.140924	0.000000	-1.037749	0.000000	5.603892	0.000000	-4.029175	339.176457	36.463328	0.157738	0.000000	-1.443486	-0.000000	-3.892738	0.000000
13.501000	-3.627841	353.089216	-33.692628	0.144550	0.000000	-1.035327	0.000000	5.599729	0.000000	-4.035140	339.112590	36.481459	0.156693	0.000000	-1.445575	-0.000000	-3.899299	0.000000
13.502000	-3.638371	353.032960	-33.706978	0.141204	0.000000	-1.035618	0.000000	5.595024	0.000000	-4.038698	339.051225	36.498687	0.158243	0.000000	-1.442479	-0.000000	-3.906090	0.000000
13.503000	-3.648945	352.961013	-33.720906	0.143579	0.000000	-1.037891	0.000000	5.589783	0.000000	-4.039449	338.991101	36.515195	0.155638	0.000000	-1.443088	-0.000000	-3.913180	0.000000
13.504000	-3.659608	352.873575	-33.734254	0.143224	0.000000	-1.033577	0.000000	5.584001	0.000000	-4.037111	338.930873	36.531154	0.156878	0.000000	-1.443139	-0.000000	-3.920593	0.000000
13.505000	-3.670474	352.771239	-33.746850	0.142294	0.000000	-1.027956	0.000000	5.577667	0.000000	-4.031620	338.868886	36.546751	0.157513	0.000000	-1.447528	-0.000000	-3.928317	0.000000
13.506000	-3.681738	352.655007	-33.758505	0.149564	0.000000	-1.033996	0.000000	5.570766	0.000000	-4.023163	338.803610	36.562198	0.156576	0.000000	-1.440923	-0.000000	-3.936330	0.000000
13.507000	-3.693648	352.526471	-33.769022	0.142311	0.000000	-1.037169	0.000000	5.563271	0.000000	-4.012158	338.734332	36.577644	0.155994	0.000000	-1.445831	-0.000000	-3.944603	0.000000
13.508000	-3.706386	352.387994	-33.778204	0.143354	0.000000	-1.031714	0.000000	5.555132	0.000000	-3.999171	338.661047	36.593108	0.157592	0.000000	-1.440801	-0.000000	-3.953087	-0.000000
13.509000	-3.719936	352.242417	-33.785869	0.142662	0.000000	-1.032151	0.000000	5.546304	0.000000	-3.984791	338.583661	36.608523	0.158952	0.000000	-1.445499	-0.000000	-3.961726	-0.000000
13.510000	-3.734048	352.092710	-33.791913	0.142445	0.000000	-1.033306	0.000000	5.536798	0.000000	-3.969536	338.501591	36.623769	0.157643	0.000000	-1.443471	-0.000000	-3.970464	-0.000000
13.511000	-3.748334	351.941955	-33.796361	0.144681	0.000000	-1.030485	0.000000	5.526704	0.000000	-3.953815	338.414009	36.638695	0.157892	0.000000	-1.446578	-0.000000	-3.979248	-0.000000
13.512000	-3.762433	351.793530	-33.799355	0.142499	0.000000	-1.034079	0.000000	5.516167	0.000000	-3.937907	338.319927	36.653171	0.158144	0.000000	-1.443169	-0.000000	-3.988030	-0.000000
13.513000	-3.776168	351.651074	-33.801111	0.143352	0.000000	-1.034601	0.000000	5.505340	0.000000	-3.921975	338.218043	36.667089	0.161967	0.000000	-1.451410	-0.000000	-3.996763	-0.000000
13.514000	-3.789593	351.517936	-33.801940	0.144758	0.000000	-1.024558	0.000000	5.494362	0.000000	-3.906093	338.107069	36.680313	0.158534	0.000000	-1.445805	-0.000000	-4.005398	-0.000000
13.515000	-3.802778	351.396455	-33.802245	0.139956	0.000000	-1.037250	0.000000	5.483365	0.000000	-3.890286	337.986528	36.692660	0.156784	0.000000	-1.441804	-0.000000	-4.013875	-0.000000
13.516000	-3.815575	351.287338	-33.802409	0.143313	0.000000	-1.036362	0.000000	5.472486	0.000000	-3.874558	337.857365	36.703957	0.156995	0.000000	-1.442464	0.000000	-4.022140	-0.000000
13.517000	-3.827617	351.189332	-33.802680	0.145903	0.000000	-1.035588	0.000000	5.461865	0.000000	-3.858904	337.722019	36.714121	0.151649	0.000000	-1.436514	0.000000	-4.030157	-0.000000
13.518000	-3.838454	351.099656	-33.803152	0.143886	0.000000	-1.036366	0.000000	5.451643	0.000000	-3.843340	337.583651	36.723148	0.157328	0.000000	-1.441489	0.000000	-4.037922	-0.000000
13.519000	-3.847607	351.014926	-33.803822	0.145248	0.000000	-1.033241	0.000000	5.441964	0.000000	-3.827916	337.444963	36.731048	0.157928	0.000000	-1.444312	0.000000	-4.045452	-0.000000
13.520000	-3.854579	350.931992	-33.804641	0.148579	0.000000	-1.022916	0.000000	5.432974	0.000000	-3.812708	337.307707	36.737805	0.158336	0.000000	-1.440765	0.000000	-4.052772	-0.000000
13.521000	-3.858898	350.848594	-33.805527	0.148155	0.000000	-1.041052	0.000000	5.424823	0.000000	-3.797786	337.172878	36.743374	0.157996	0.000000	-1.447975	0.000000	-4.059909	-0.000000
13.522000	-3.860199	350.763451	-33.806347	0.144751	0.000000	-1.034145	0.000000	5.417648	0.000000	-3.783199	337.041075	36.747697	0.156687	0.000000	-1.441524	-0.000000	-4.066890	-0.000000
13.523000	-3.858349	350.675819	-33.806979	0.146161	0.000000	-1.029332	-0.000000	5.411536	0.000000	-3.768947	336.912860	36.750715	0.158429	0.000000	-1.448318	-0.000000	-4.073748	-0.000000
13.524000	-3.853543	350.585377	-33.807400	0.146294	0.000000	-1.033626	-0.000000	5.406506	0.000000	-3.754962	336.788901	36.752407	0.156781	0.000000	-1.440450	-0.000000	-4.080525	-0.000000
13.525000	-3.846257	350.492325	-33.807700	0.144178	0.000000	-1.031489	-0.000000	5.402541	0.000000	-3.741128	336.669833	36.752872	0.158355	0.000000	-1.447191	-0.000000	-4.087263	-0.000000
13.526000	-3.837067	350.396980	-33.808032	0.140904	0.000000	-1.043033	-0.000000	5.399613	0.000000	-3.727343	336.556199	36.752383	0.158701	0.000000	-1.443838	-0.000000	-4.093997	-0.000000
13.527000	-3.826484	350.298929	-33.808581	0.144876	0.000000	-1.035682	-0.000000	5.397697	0.000000	-3.713559	336.448793	36.751337	0.156844	0.000000	-1.443502	-0.000000	-4.100746	-0.000000
13.528000	-3.814861	350.196656	-33.809544	0.144538	0.000000	-1.036754	-0.000000	5.396766	0.000000	-3.699788	336.348979	36.750140	0.157197	0.000000	-1.442345	-0.000000	-4.107520	-0.000000
13.529000	-3.802404	350.088227	-33.811100	0.151011	0.000000	-1.033765	-0.000000	5.396785	0.000000	-3.686084	336.258347	36.749169	0.156493	0.000000	-1.444055	-0.000000	-4.114327	-0.000000
13.530000	-3.789237	349.972371	-33.813413	0.146630	0.000000	-1.034515	-0.000000	5.397703	0.000000	-3.672530	336.177937	36.748788	0.155980	0.000000	-1.440361	-0.000000	-4.121174	-0.000000
13.531000	-3.775473	349.848939	-33.816649	0.145984	0.000000	-1.028668	-0.000000	5.399446	0.000000	-3.659227	336.107829	36.749362	0.160871	0.000000	-1.447324	-0.000000	-4.128053	-0.000000
13.532000	-3.761263	349.718647	-33.820962	0.145933	0.000000	-1.035179	-0.000000	5.401926	0.000000	-3.646314	336.047439	36.751253	0.156466	0.000000	-1.443407	-0.000000	-4.134943	-0.000000
13.533000	-3.746800	349.582767	-33.826437	0.146119	0.000000	-1.031816	-0.000000	5.405040	0.000000	-3.633962	335.996172	36.754792	0.156857	0.000000	-1.444381	-0.000000	-4.141816	-0.000000
